<svg width="22" height="22" viewBox="0 0 22 22" fill="none" xmlns="http://www.w3.org/2000/svg">
<path fill-rule="evenodd" clip-rule="evenodd" d="M14.9647 13.6575L19.8964 18.5891C20.0697 18.7626 20.167 18.9978 20.167 19.243C20.1669 19.4883 20.0694 19.7234 19.8959 19.8968C19.7224 20.0701 19.4872 20.1674 19.242 20.1674C18.9968 20.1673 18.7616 20.0698 18.5883 19.8963L13.6566 14.9646C12.1823 16.1065 10.3285 16.6439 8.47206 16.4674C6.61567 16.2909 4.89624 15.4138 3.66355 14.0146C2.43087 12.6154 1.77752 10.7991 1.83643 8.9353C1.89533 7.07147 2.66207 5.30009 3.98065 3.98151C5.29923 2.66292 7.07062 1.89619 8.93445 1.83728C10.7983 1.77838 12.6145 2.43172 14.0138 3.66441C15.413 4.8971 16.29 6.61653 16.4665 8.47292C16.643 10.3293 16.1056 12.1832 14.9638 13.6575H14.9647ZM9.16678 14.6667C10.6255 14.6667 12.0244 14.0873 13.0559 13.0558C14.0873 12.0244 14.6668 10.6254 14.6668 9.16672C14.6668 7.70803 14.0873 6.30908 13.0559 5.27763C12.0244 4.24618 10.6255 3.66672 9.16678 3.66672C7.70809 3.66672 6.30914 4.24618 5.27769 5.27763C4.24624 6.30908 3.66678 7.70803 3.66678 9.16672C3.66678 10.6254 4.24624 12.0244 5.27769 13.0558C6.30914 14.0873 7.70809 14.6667 9.16678 14.6667V14.6667Z" fill="#054F48"/>
</svg>
